<svg width="27" height="21" viewBox="0 0 27 21" fill="none" xmlns="http://www.w3.org/2000/svg">
<path d="M8.79599 20.6366C18.3484 20.6366 23.5722 12.7227 23.5722 5.8604C23.5722 5.63563 23.5675 5.41179 23.5575 5.1892C24.5714 4.45608 25.4526 3.54122 26.148 2.4999C25.2175 2.91368 24.216 3.19185 23.1657 3.3177C24.2378 2.67451 25.061 1.6575 25.4492 0.445124C24.4458 1.04001 23.3346 1.4722 22.1516 1.70564C21.2039 0.696205 19.8546 0.0649414 18.3606 0.0649414C15.4928 0.0649414 13.167 2.39062 13.167 5.25746C13.167 5.6652 13.2127 6.06148 13.3017 6.44166C8.98547 6.22448 5.15795 4.15809 2.59683 1.01571C2.15101 1.78304 1.89374 2.67467 1.89374 3.62605C1.89374 5.42758 2.8106 7.01844 4.20471 7.94877C3.3527 7.92261 2.5524 7.68871 1.85272 7.29939C1.85194 7.32122 1.85194 7.34243 1.85194 7.36565C1.85194 9.88079 3.64202 11.9808 6.01862 12.4566C5.58209 12.5753 5.12281 12.6393 4.64913 12.6393C4.31508 12.6393 3.98938 12.6065 3.67298 12.5456C4.33412 14.6091 6.25144 16.1106 8.52448 16.1527C6.74694 17.5459 4.5078 18.3758 2.07423 18.3758C1.65566 18.3758 1.24189 18.3518 0.835388 18.3038C3.13382 19.777 5.86305 20.6367 8.79615 20.6367" fill="#F2F2F2"/>
</svg>
